<!-- connexion_button.svg -->
<svg width="392" height="49" viewBox="0 0 392 49" fill="none" xmlns="http://www.w3.org/2000/svg">
  <rect width="392" height="49" rx="24.5" fill="#14AE5C"/>
  <path d="M156.243 23.3622H153.587C153.511 22.9266 153.371 22.5407 153.168 22.2045C152.964 21.8636 152.711 21.5748 152.408 21.3381C152.105 21.1013 151.759 20.9238 151.371 20.8054C150.987 20.6823 150.573 20.6207 150.128 20.6207C149.337 20.6207 148.636 20.8196 148.026 21.2173C147.415 21.6103 146.936 22.188 146.591 22.9503C146.245 23.7079 146.072 24.6335 146.072 25.7273C146.072 26.84 146.245 27.7775 146.591 28.5398C146.941 29.2973 147.419 29.8703 148.026 30.2585C148.636 30.642 149.335 30.8338 150.121 30.8338C150.556 30.8338 150.963 30.777 151.342 30.6634C151.726 30.545 152.069 30.3722 152.372 30.1449C152.68 29.9176 152.938 29.6383 153.146 29.3068C153.359 28.9754 153.506 28.5966 153.587 28.1705L156.243 28.1847C156.143 28.8759 155.928 29.5246 155.597 30.1307C155.27 30.7367 154.841 31.2718 154.311 31.7358C153.781 32.1951 153.16 32.5549 152.45 32.8153C151.74 33.071 150.952 33.1989 150.085 33.1989C148.807 33.1989 147.666 32.9029 146.662 32.3111C145.658 31.7192 144.867 30.8646 144.29 29.7472C143.712 28.6297 143.423 27.2898 143.423 25.7273C143.423 24.16 143.714 22.8201 144.297 21.7074C144.879 20.59 145.672 19.7353 146.676 19.1435C147.68 18.5516 148.816 18.2557 150.085 18.2557C150.895 18.2557 151.648 18.3693 152.344 18.5966C153.04 18.8239 153.66 19.1577 154.204 19.598C154.749 20.0336 155.196 20.5687 155.547 21.2031C155.902 21.8329 156.134 22.5526 156.243 23.3622ZM163.301 33.2131C162.235 33.2131 161.312 32.9787 160.531 32.5099C159.75 32.0412 159.144 31.3854 158.713 30.5426C158.287 29.6998 158.073 28.715 158.073 27.5881C158.073 26.4612 158.287 25.474 158.713 24.6264C159.144 23.7789 159.75 23.1207 160.531 22.652C161.312 22.1832 162.235 21.9489 163.301 21.9489C164.366 21.9489 165.289 22.1832 166.071 22.652C166.852 23.1207 167.456 23.7789 167.882 24.6264C168.313 25.474 168.528 26.4612 168.528 27.5881C168.528 28.715 168.313 29.6998 167.882 30.5426C167.456 31.3854 166.852 32.0412 166.071 32.5099C165.289 32.9787 164.366 33.2131 163.301 33.2131ZM163.315 31.1534C163.893 31.1534 164.376 30.9948 164.764 30.6776C165.152 30.3556 165.441 29.9247 165.63 29.3849C165.824 28.8452 165.921 28.2438 165.921 27.581C165.921 26.9134 165.824 26.3097 165.63 25.7699C165.441 25.2254 165.152 24.7921 164.764 24.4702C164.376 24.1482 163.893 23.9872 163.315 23.9872C162.723 23.9872 162.231 24.1482 161.838 24.4702C161.449 24.7921 161.158 25.2254 160.964 25.7699C160.775 26.3097 160.68 26.9134 160.68 27.581C160.68 28.2438 160.775 28.8452 160.964 29.3849C161.158 29.9247 161.449 30.3556 161.838 30.6776C162.231 30.9948 162.723 31.1534 163.315 31.1534ZM173.281 26.608V33H170.71V22.0909H173.168V23.9446H173.295C173.546 23.3338 173.946 22.8485 174.496 22.4886C175.05 22.1288 175.734 21.9489 176.548 21.9489C177.301 21.9489 177.957 22.1098 178.516 22.4318C179.079 22.7538 179.515 23.2202 179.822 23.831C180.135 24.4418 180.289 25.1828 180.284 26.054V33H177.713V26.4517C177.713 25.7225 177.524 25.152 177.145 24.7401C176.771 24.3281 176.252 24.1222 175.589 24.1222C175.14 24.1222 174.74 24.2216 174.389 24.4205C174.044 24.6146 173.771 24.8963 173.572 25.2656C173.378 25.6349 173.281 26.0824 173.281 26.608ZM185.469 26.608V33H182.898V22.0909H185.355V23.9446H185.483C185.734 23.3338 186.134 22.8485 186.683 22.4886C187.237 22.1288 187.921 21.9489 188.736 21.9489C189.489 21.9489 190.144 22.1098 190.703 22.4318C191.267 22.7538 191.702 23.2202 192.01 23.831C192.324 24.4418 192.477 25.1828 192.473 26.054V33H189.902V26.4517C189.902 25.7225 189.713 25.152 189.334 24.7401C188.96 24.3281 188.441 24.1222 187.779 24.1222C187.331 24.1222 186.93 24.2216 186.579 24.4205C186234 24.6146 185.962 24.8963 185.763 25.2656C185.568 25.6349 185.469 26.0824 185.469 26.608Z" fill="white"/>
</svg>
